<?xml version="1.0" encoding="UTF-8" standalone="no"?>
<!-- Uploaded to: SVG Repo, www.svgrepo.com, Generator: SVG Repo Mixer Tools -->

<svg
   fill="#000000"
   height="800"
   width="800"
   version="1.1"
   id="Layer_1"
   viewBox="0 0 512 512"
   xml:space="preserve"
   xmlns="http://www.w3.org/2000/svg"
   xmlns:svg="http://www.w3.org/2000/svg"><defs
   id="defs4" />
<g
   id="g4">
	<g
   id="g3">
		<g
   id="g2">
			<path
   d="m 256,192 c -35.285,0 -64,28.715 -64,64 0,35.285 28.715,64 64,64 35.285,0 64,-28.715 64,-64 0,-35.285 -28.715,-64 -64,-64 z"
   id="path1" />
			<path
   d="m 494.699,212.48 -28.245,-5.44 c -12.651,-2.411 -22.571,-10.688 -27.285,-22.635 -4.715,-12.011 -3.051,-24.832 4.587,-35.221 l 17.728,-24.192 c 6.229,-8.469 5.312,-20.245 -2.133,-27.669 L 421.058,59.03 c -7.211,-7.232 -18.603,-8.299 -27.029,-2.581 L 370.2,72.556 c -10.624,7.232 -23.467,8.405 -35.307,3.285 C 323.096,70.678 315.181,60.438 313.24,47.702 L 308.675,18.091 C 307.072,7.68 298.112,0 287.573,0 H 233.429 C 223.21,0 214.421,7.253 212.48,17.301 l -7.019,36.48 c -2.368,12.352 -10.389,22.208 -22.016,27.008 -11.627,4.843 -24.299,3.541 -34.709,-3.52 L 117.973,56.448 C 109.546,50.731 98.197,51.797 90.944,59.029 L 52.651,97.323 c -7.445,7.424 -8.363,19.2 -2.133,27.669 l 17.728,24.213 c 7.637,10.368 9.301,23.189 4.587,35.2 -4.715,11.947 -14.635,20.224 -27.307,22.635 l -28.224,5.44 C 7.253,214.421 0,223.211 0,233.429 v 54.144 c 0,10.539 7.68,19.499 18.091,21.099 l 29.611,4.565 c 12.736,1.941 22.976,9.856 28.139,21.653 5.141,11.797 3.947,24.661 -3.285,35.328 l -16.107,23.808 c -5.739,8.448 -4.651,19.797 2.581,27.029 l 38.293,38.293 c 7.445,7.467 19.2,8.32 27.669,2.133 l 24.213,-17.728 c 10.368,-7.616 23.168,-9.259 35.2,-4.587 11.947,4.715 20.224,14.635 22.635,27.307 l 5.44,28.224 c 1.941,10.05 10.731,17.303 20.949,17.303 h 54.144 c 10.539,0 19.499,-7.68 21.099,-18.091 l 3.2,-20.821 c 2.005,-13.035 10.133,-23.381 22.293,-28.395 12.075,-5.035 25.195,-3.477 35.84,4.331 l 17.003,12.459 c 8.427,6.187 20.224,5.333 27.669,-2.133 l 38.293,-38.293 c 7.232,-7.232 8.32,-18.581 2.581,-27.029 l -16.107,-23.829 c -7.232,-10.645 -8.427,-23.509 -3.285,-35.307 5.163,-11.797 15.403,-19.712 28.139,-21.653 l 29.611,-4.565 C 504.32,307.074 512,298.114 512,287.575 v -54.144 c 0,-10.22 -7.253,-19.01 -17.301,-20.951 z M 256,362.667 c -58.816,0 -106.667,-47.851 -106.667,-106.667 0,-58.816 47.851,-106.667 106.667,-106.667 58.816,0 106.667,47.851 106.667,106.667 0,58.816 -47.851,106.667 -106.667,106.667 z"
   id="path2" />
		</g>
	</g>
</g>
</svg>
